<svg xmlns="http://www.w3.org/2000/svg" viewBox="0 0 1600 900">
<rect width="100%" height="100%" fill="#101216"/>
<text x="24" y="26" fill="white" font-size="16">GRAD_8 | GRAD_8-80ca86bf5e67 | REGION 01/02</text>
<text x="24" y="48" fill="#d1d5db" font-size="12">X horizontal, Y vertical | Unity world units | X=-81.4..4.727 | Y=-26.148..34.596</text>
<text x="1180" y="26" fill="#7dd3fc" font-size="11">ROAD / SPRITESHAPE</text>
<text x="1180" y="44" fill="#fbbf24" font-size="11">MARKER</text>
<text x="1180" y="62" fill="#86efac" font-size="11">RELATIVE ANCHOR</text>
<text x="1180" y="80" fill="#9ca3af" font-size="11">SPRITE BOUNDS</text>
<line x1="1122.037" y1="850" x2="1122.037" y2="50" stroke="#374151" stroke-width="1"/>
<line x1="50" y1="505.634" x2="1184.298" y2="505.634" stroke="#374151" stroke-width="1"/>
<path d="M1005.668,123.704 L1006.021,124.165 L1007.042,125.465 L1008.672,127.482 L1010.851,130.094 L1013.52,133.178 L1016.621,136.611 L1020.093,140.272 L1023.879,144.037 L1027.919,147.783 L1032.154,151.39 L1036.524,154.733 L1040.972,157.69 L1045.437,160.14 L1049.861,161.959 L1054.184,163.024 L1058.348,163.214 L1062.242,162.353 L1065.828,160.452 L1069.155,157.664 L1072.271,154.142 L1075.226,150.039 L1078.069,145.51 L1080.847,140.708 L1083.611,135.786 L1086.408,130.899 L1089.287,126.199 L1092.298,121.839 L1095.489,117.975 L1098.908,114.759 L1102.605,112.344 L1106.629,110.885 L1111.028,110.534 L1115.364,111.442 L1119.217,113.545 L1122.66,116.679 L1125.768,120.681 L1128.613,125.384 L1131.27,130.624 L1133.812,136.238 L1136.313,142.059 L1138.848,147.925 L1141.489,153.67 L1144.31,159.129 L1147.386,164.138 L1150.79,168.533 L1154.596,172.148 L1158.877,174.82 L1163.708,176.384 L1169.104,176.705 L1174.958,175.865 L1181.159,174.021 L1187.596,171.329 L1194.158,167.949 L1200.733,164.037 L1207.21,159.75 L1213.477,155.246 L1219.424,150.682 L1224.939,146.216 L1229.911,142.005 L1234.228,138.207 L1237.78,134.979 L1240.454,132.478 L1242.141,130.863 L1242.728,130.289" fill="none" fill-opacity="0" stroke="#7dd3fc" stroke-width="2"/>
<text x="1009.668" y="119.704" fill="#bae6fd" font-size="11">SHP-CD460A536CE4 [SSP_GRAD8_ACID]</text>
<path d="M610.568,123.704 L611.156,123.368 L612.846,122.422 L615.526,120.96 L619.084,119.075 L623.408,116.86 L628.387,114.408 L633.909,111.812 L639.861,109.166 L646.133,106.562 L652.613,104.095 L659.188,101.856 L665.747,99.94 L672.179,98.44 L678.37,97.448 L684.211,97.058 L689.588,97.364 L694.645,98.537 L699.612,100.601 L704.503,103.425 L709.336,106.88 L714.127,110.834 L718.89,115.158 L723.644,119.721 L728.403,124.393 L733.183,129.043 L738.002,133.542 L742.874,137.758 L747.816,141.561 L752.845,144.822 L757.976,147.41 L763.224,149.194 L768.608,150.044 L773.971,149.879 L779.164,148.792 L784.212,146.915 L789.139,144.38 L793.968,141.318 L798.725,137.861 L803.434,134.141 L808.118,130.289 L812.802,126.437 L817.51,122.717 L822.267,119.26 L827.097,116.198 L832.024,113.663 L837.072,111.786 L842.265,110.699 L847.628,110.534 L852.991,111.404 L858.184,113.243 L863.232,115.913 L868.159,119.275 L872.988,123.19 L877.745,127.521 L882.454,132.128 L887.138,136.874 L891.822,141.62 L896.53,146.227 L901.287,150.558 L906.117,154.473 L911.044,157.835 L916.091,160.504 L921.285,162.344 L926.648,163.214 L932.33,163.069 L938.397,162.036 L944.745,160.24 L951.27,157.805 L957.869,154.853 L964.437,151.509 L970.872,147.896 L977.07,144.138 L982.926,140.359 L988.338,136.683 L993.201,133.233 L997.413,130.132 L1000.869,127.505 L1003.466,125.476 L1005.1,124.168 L1005.668,123.704" fill="none" fill-opacity="0" stroke="#7dd3fc" stroke-width="2"/>
<text x="614.568" y="119.704" fill="#bae6fd" font-size="11">SHP-67DE31671D66 [SSP_GRAD4_FIRE]</text>
<path d="M855.167,631.277 L855.875,630.719 L857.91,629.139 L861.146,626.68 L865.451,623.483 L870.697,619.692 L876.754,615.447 L883.493,610.89 L890.785,606.165 L898.501,601.414 L906.511,596.777 L914.685,592.397 L922.895,588.417 L931.011,584.979 L938.905,582.224 L946.446,580.295 L953.505,579.333 L960.17,579.389 L966.636,580.33 L972.929,582.027 L979.078,584.351 L985.111,587.172 L991.056,590.361 L996.941,593.787 L1002.794,597.322 L1008.644,600.836 L1014.517,604.199 L1020.443,607.282 L1026.45,609.955 L1032.565,612.09 L1038.817,613.555 L1045.233,614.223 L1051.842,613.962 L1058.346,612.535 L1064.473,609.905 L1070.294,606.247 L1075.879,601.736 L1081.299,596.547 L1086.625,590.854 L1091.927,584.832 L1097.274,578.657 L1102.739,572.503 L1108.391,566.545 L1114.301,560.958 L1120.539,555.916 L1127.175,551.595 L1134.28,548.17 L1141.925,545.814 L1150.18,544.704 L1159.38,545.201 L1169.662,547.394 L1180.792,551.043 L1192.541,555.912 L1204.677,561.76 L1216.969,568.35 L1229.188,575.444 L1241.1,582.802 L1252.476,590.188 L1263.085,597.362 L1272.695,604.087 L1281.076,610.123 L1287.997,615.233 L1293.226,619.178 L1296.533,621.719 L1297.687,622.619" fill="none" fill-opacity="0" stroke="#7dd3fc" stroke-width="2"/>
<text x="859.167" y="627.277" fill="#bae6fd" font-size="11">grad8_floor_acid_slot_075_120 [SSP_GRAD8_ACID]</text>
<path d="M610.568,624.164 L611.154,623.846 L612.839,622.952 L615.511,621.566 L619.059,619.774 L623.373,617.662 L628.341,615.316 L633.852,612.821 L639.796,610.263 L646.061,607.728 L652.536,605.302 L659.111,603.069 L665.674,601.117 L672.114,599.531 L678.321,598.396 L684.182,597.798 L689.588,597.824 L694.674,598.608 L699.662,600.155 L704.568,602.349 L709.41,605.074 L714.204,608.216 L718.967,611.659 L723.716,615.288 L728.468,618.989 L733.239,622.645 L738.047,626.142 L742.909,629.365 L747.841,632.199 L752.86,634.527 L757.983,636.236 L763.226,637.21 L768.608,637.334 L773.971,636.463 L779.164,634.624 L784.212,631.955 L789.139,628.593 L793.968,624.678 L798.725,620.347 L803.434,615.74 L808.118,610.994 L812.802,606.248 L817.51,601.64 L822.267,597.31 L827.097,593.394 L832.024,590.033 L837.072,587.363 L842.265,585.524 L847.628,584.654 L853.023,584.756 L858.305,585.67 L863.485,587.29 L868.574,589.51 L873.583,592.223 L878.524,595.322 L883.408,598.702 L888.246,602.255 L893.049,605.876 L897.829,609.457 L902.597,612.893 L907.364,616.077 L912.141,618.903 L916.94,621.263 L921.772,623.052 L926.648,624.164 L931.843,624.664 L937.549,624.726 L943.648,624.408 L950.023,623.764 L956.559,622.851 L963.139,621.724 L969.645,620.439 L975.961,619.053 L981.971,617.62 L987.558,616.197 L992.606,614.84 L996.997,613.604 L1000.616,612.546 L1003.344,611.721 L1005.068,611.185 L1005.668,610.994" fill="none" fill-opacity="0" stroke="#7dd3fc" stroke-width="2"/>
<text x="614.568" y="620.164" fill="#bae6fd" font-size="11">grad8_floor_fire_000_075 [SSP_GRAD4_FIRE]</text>
<path d="M1042.544,189.554 L1042.9,189.07 L1043.929,187.706 L1045.57,185.593 L1047.763,182.865 L1050.448,179.651 L1053.564,176.085 L1057.052,172.299 L1060.852,168.423 L1064.902,164.591 L1069.143,160.933 L1073.515,157.582 L1077.957,154.67 L1082.409,152.328 L1086.811,150.688 L1091.102,149.883 L1095.224,150.044 L1099.225,151.213 L1103.19,153.288 L1107.105,156.181 L1110.958,159.807 L1114.737,164.079 L1118.43,168.911 L1122.025,174.217 L1125.508,179.911 L1128.868,185.906 L1132.093,192.116 L1135.169,198.455 L1138.086,204.837 L1140.83,211.175 L1143.389,217.383 L1145.751,223.375 L1147.904,229.064 L1150.012,235.451 L1152.222,243.448 L1154.488,252.831 L1156.766,263.381 L1159.012,274.874 L1161.182,287.091 L1163.231,299.808 L1165.116,312.806 L1166.793,325.861 L1168.216,338.753 L1169.343,351.261 L1170.129,363.162 L1170.529,374.235 L1170.499,384.259 L1169.996,393.013 L1168.975,400.274 L1167.551,406.946 L1165.867,414.009 L1163.928,421.353 L1161.733,428.867 L1159.286,436.442 L1156.589,443.969 L1153.643,451.338 L1150.451,458.44 L1147.014,465.164 L1143.336,471.402 L1139.417,477.043 L1135.26,481.977 L1130.868,486.097 L1126.242,489.29 L1121.383,491.449 L1116.296,492.464 L1111.132,492.081 L1106.066,490.255 L1101.131,487.19 L1096.359,483.087 L1091.783,478.149 L1087.435,472.579 L1083.347,466.578 L1079.551,460.35 L1076.081,454.096 L1072.968,448.019 L1070.245,442.322 L1067.945,437.207 L1066.1,432.876 L1064.741,429.532 L1063.902,427.377 L1063.615,426.614" fill="none" fill-opacity="0" stroke="#7dd3fc" stroke-width="2"/>
<text x="1046.544" y="185.554" fill="#bae6fd" font-size="11">SHP-5B12C8E645BB [SSP_SPACE]</text>
<path d="M831.824,242.234 L832.052,241.642 L832.722,239.97 L833.805,237.372 L835.278,234.003 L837.114,230.016 L839.288,225.566 L841.774,220.807 L844.547,215.894 L847.581,210.981 L850.85,206.222 L854.328,201.772 L857.991,197.785 L861.811,194.415 L865.765,191.817 L869.826,190.146 L873.968,189.554 L878.123,190.006 L882.231,191.311 L886.277,193.391 L890.247,196.168 L894.125,199.563 L897.899,203.498 L901.552,207.896 L905.071,212.678 L908.441,217.767 L911.648,223.084 L914.677,228.55 L917.514,234.089 L920.144,239.622 L922.552,245.071 L924.725,250.357 L926.648,255.404 L928.371,261.688 L929.951,270.496 L931.377,281.459 L932.642,294.211 L933.735,308.383 L934.648,323.608 L935.373,339.52 L935.9,355.75 L936.22,371.931 L936.324,387.695 L936.203,402.675 L935.849,416.503 L935.252,428.813 L934.403,439.236 L933.294,447.406 L931.916,452.954 L930.307,457.183 L928.513,461.596 L926.535,466.128 L924.374,470.712 L922.031,475.281 L919.507,479.77 L916.802,484.111 L913.918,488.24 L910.856,492.088 L907.617,495.591 L904.2,498.682 L900.609,501.294 L896.842,503.362 L892.902,504.819 L888.789,505.598 L884.504,505.634 L880.189,504.579 L876,502.256 L871.959,498.848 L868.085,494.539 L864.4,489.515 L860.925,483.959 L857.682,478.057 L854.69,471.993 L851.972,465.951 L849.548,460.116 L847.439,454.672 L845.667,449.804 L844.251,445.697 L843.215,442.535 L842.577,440.502 L842.36,439.784" fill="none" fill-opacity="0" stroke="#7dd3fc" stroke-width="2"/>
<text x="835.824" y="238.234" fill="#bae6fd" font-size="11">SHP-7DA85C714ADC [SSP_SPACE]</text>
<path d="M872.085,373.934 L872.121,370.082 L872.227,365.904 L872.397,361.476 L872.627,356.872 L872.912,352.166 L873.246,347.433 L873.627,342.748 L874.047,338.185 L874.504,333.819 L874.991,329.725 L875.504,325.976 L876.039,322.648 L876.59,319.816 L877.153,317.554 L877.723,315.936 L878.294,315.038 L878.902,314.556 L879.578,314.138 L880.31,313.785 L881.091,313.495 L881.911,313.27 L882.759,313.11 L883.627,313.013 L884.504,312.981 L885.381,313.013 L886.248,313.11 L887.097,313.27 L887.916,313.495 L888.697,313.785 L889.43,314.138 L890.105,314.556 L890.713,315.038 L891.285,315.936 L891.854,317.554 L892.417,319.816 L892.968,322.648 L893.503,325.976 L894.016,329.725 L894.504,333.819 L894.96,338.185 L895.381,342.748 L895.761,347.433 L896.096,352.166 L896.381,356.872 L896.611,361.476 L896.781,365.904 L896.886,370.082 L896.923,373.934 L896.886,377.786 L896.781,381.963 L896.611,386.391 L896.381,390.996 L896.096,395.702 L895.761,400.434 L895.381,405.12 L894.96,409.683 L894.504,414.049 L894.016,418.143 L893.503,421.891 L892.968,425.219 L892.417,428.051 L891.854,430.314 L891.285,431.931 L890.713,432.83 L890.105,433.312 L889.43,433.73 L888.697,434.083 L887.916,434.372 L887.097,434.597 L886.248,434.758 L885.381,434.854 L884.504,434.886 L883.627,434.854 L882.759,434.758 L881.911,434.597 L881.091,434.372 L880.31,434.083 L879.578,433.73 L878.902,433.312 L878.294,432.83 L877.723,431.931 L877.153,430.314 L876.59,428.051 L876.039,425.219 L875.504,421.891 L874.991,418.143 L874.504,414.049 L874.047,409.683 L873.627,405.12 L873.246,400.434 L872.912,395.702 L872.627,390.996 L872.397,386.391 L872.227,381.963 L872.121,377.786 L872.085,373.934 Z" fill="#7dd3fc" fill-opacity="0.06" stroke="#7dd3fc" stroke-width="2"/>
<text x="876.085" y="369.934" fill="#bae6fd" font-size="11">grad8_star_01 [SSP_GRAD4_FIRE]</text>
<path d="M1063.736,268.574 L1063.766,265.093 L1063.855,261.313 L1063.998,257.305 L1064.192,253.134 L1064.431,248.871 L1064.712,244.583 L1065.032,240.338 L1065.385,236.204 L1065.768,232.25 L1066.177,228.545 L1066.608,225.155 L1067.056,222.15 L1067.518,219.598 L1067.989,217.567 L1068.466,216.125 L1068.944,215.341 L1069.452,214.935 L1070.018,214.583 L1070.632,214.285 L1071.287,214.042 L1071.975,213.852 L1072.687,213.717 L1073.415,213.636 L1074.152,213.609 L1074.888,213.636 L1075.616,213.717 L1076.328,213.852 L1077.016,214.042 L1077.671,214.285 L1078.285,214.583 L1078.851,214.935 L1079.359,215.341 L1079.838,216.125 L1080.314,217.567 L1080.786,219.598 L1081.247,222.15 L1081.696,225.155 L1082.126,228.545 L1082.535,232.25 L1082.918,236.204 L1083.272,240.338 L1083.591,244.583 L1083.872,248.871 L1084.112,253.134 L1084.305,257.305 L1084.448,261.313 L1084.537,265.093 L1084.567,268.574 L1084.537,272.055 L1084.448,275.834 L1084.305,279.843 L1084.112,284.013 L1083.872,288.277 L1083.591,292.565 L1083.272,296.81 L1082.918,300.944 L1082.535,304.897 L1082.126,308.603 L1081.696,311.992 L1081.247,314.997 L1080.786,317.549 L1080.314,319.581 L1079.838,321.023 L1079.359,321.807 L1078.851,322.213 L1078.285,322.565 L1077.671,322.862 L1077.016,323.106 L1076.328,323.295 L1075.616,323.431 L1074.888,323.512 L1074.152,323.539 L1073.415,323.512 L1072.687,323.431 L1071.975,323.295 L1071.287,323.106 L1070.632,322.862 L1070.018,322.565 L1069.452,322.213 L1068.944,321.807 L1068.466,321.023 L1067.989,319.581 L1067.518,317.549 L1067.056,314.997 L1066.608,311.992 L1066.177,308.603 L1065.768,304.897 L1065.385,300.944 L1065.032,296.81 L1064.712,292.565 L1064.431,288.277 L1064.192,284.013 L1063.998,279.843 L1063.855,275.834 L1063.766,272.055 L1063.736,268.574 Z" fill="#7dd3fc" fill-opacity="0.06" stroke="#7dd3fc" stroke-width="2"/>
<text x="1067.736" y="264.574" fill="#bae6fd" font-size="11">grad8_star_02 [SSP_GRAD4_FIRE]</text>
<polygon points="139.409,508.459 140.23,508.024 140.989,507.589 142.253,506.76 142.822,506.345 143.012,506.068 143.328,505.653 143.518,505.337 143.518,504.547 143.138,504.093 142.569,503.777 142.316,503.638 140.673,503.145 139.282,502.809 139.029,502.414 141.179,502.394 141.495,502.335 141.621,502.019 141.431,501.9 141.115,501.782 140.42,501.722 137.386,501.683 129.737,501.683 128.219,501.722 127.587,501.762 127.145,501.841 126.955,502.216 127.334,502.354 127.84,502.414 129.61,502.414 128.472,503.026 127.84,503.164 126.386,503.599 126.007,503.757 125.375,504.113 125.059,504.508 125.059,505.377 125.185,505.634 125.817,506.266 126.133,506.542 126.576,506.878 126.955,507.155 127.777,507.728 129.041,508.518 130.242,509.15 130.622,509.288 131.064,509.387 131.759,509.486 132.708,509.585 135.805,509.585 137.196,509.407 138.081,509.15" fill="none" stroke="#6b7280" stroke-width="0.8"/>
<rect x="134.288" y="505.634" width="1" height="1" fill="none" stroke="#6b7280" stroke-width="0.8"/>
<polygon points="881.91,308.185 882.484,307.838 889.376,307.995 889.773,308.621 890.179,308.888 892.647,308.944 892.944,309.466 893.298,309.731 904.408,309.984 904.563,309.936 904.825,309.737 904.837,309.222 904.397,308.183 903.897,307.554 903.336,307.336 902.992,306.607 902.249,305.355 901.801,304.676 901.399,304.255 900.637,303.826 899.818,303.653 898.582,303.676 899.212,303.125 900.003,302.319 900.218,301.913 900.172,301.654 899.895,300.259 899.825,298.816 899.679,298.453 899.026,295.505 898.743,294.366 898.516,293.023 898.276,292.297 897.774,291.72 897.731,291.358 897.137,290.316 896.103,288.285 895.752,287.866 895.391,287.909 895.148,287.286 894.958,286.612 893.665,284.628 893.414,284.364 892.905,284.096 891.928,284.073 891.013,283.589 889.889,283.204 889.685,283.147 879.501,282.915 878.152,283.399 877.474,283.795 876.549,283.774 876.136,283.816 875.665,284.166 874.332,286.194 872.779,288.885 872.766,289.451 872.804,290.018 872.436,290.37 872.119,290.723 871.121,291.626 870.906,292.033 870.231,294.539 870.002,295.563 869.771,296.639 869.75,297.564 869.14,299.506 868.75,300.835 868.686,301.348 868.933,301.817 869.937,302.92 869.365,303.165 868.433,303.452 867.958,303.956 867.426,304.716 866.573,306.034 865.359,307.344 864.923,308.415 864.916,308.723 865.166,309.038 865.319,309.093 879.309,309.412 879.62,309.316 880.149,308.659 881.281,308.685" fill="none" stroke="#6b7280" stroke-width="0.8"/>
<polygon points="889.458,281.349 889.184,281.342 889.073,281.395 885.975,282.477 885.865,282.474 885.802,285.217 889.07,286.335 889.29,286.34 890.633,285.218 892.088,283.988 892.093,283.769" fill="none" stroke="#6b7280" stroke-width="0.8"/>
<polygon points="888.913,288.453 888.813,288.275 889.493,287.591 890.303,287.365 892.087,287.37 892.3,287.27 892.865,287.038 894.928,287.085 894.964,287.051 900.595,287.179 900.769,287.218 902.203,287.251 902.415,287.151 902.809,286.74 905.852,286.809 906.289,286.05 906.381,285.107 906.429,282.974 906.211,281.814 905.94,281.423 905.766,281.384 903.109,281.288 902.802,280.931 902.46,280.574 902.287,280.5 893.438,280.298 893.333,280.33 893.225,280.468 892.107,280.372 891.482,280.148 891.104,279.86 890.448,279.46 889.753,279.269 889.477,279.088 888.725,278.301 888.621,278.263 886.278,278.21 885.084,278.393 883.989,278.823 883.279,279.261 882.549,280.609 881.919,280.595 881.667,280.904 881.603,282.197 881.453,282.614 881.414,284.363 881.624,285.872 882.107,286.163 882.485,286.486 883.013,287.898 883.315,288.465 883.62,288.857 884.312,289.223 885.906,289.924 886.288,290.037 887.932,290.075 888.356,289.875 888.713,289.568 888.971,289.014" fill="none" stroke="#6b7280" stroke-width="0.8"/>
<polygon points="889.662,299.774 890.143,299.785 890.437,299.903 890.81,299.8 891.148,299.586 891.938,299.048 892.697,298.287 893.041,297.813 893.657,296.79 893.78,296.274 893.788,295.941 893.579,295.343 894.149,294.727 894.195,294.32 894.215,293.468 894.16,292.615 894.022,292.167 893.604,291.009 893.105,290.146 892.781,289.731 892.238,289.162 891.792,289.226 891.429,288.885 891.4,288.551 891.184,288.286 890.012,287.667 888.982,287.347 888.539,287.263 886.947,287.226 886.613,287.256 885.607,287.492 885.38,287.709 885.148,288.112 884.849,288.253 884.63,288.1 884.258,288.165 883.659,288.448 882.905,289.024 882.373,289.604 882.028,290.078 881.645,290.625 881.375,291.101 881.059,291.946 880.931,292.721 881.037,292.945 881.058,293.613 880.904,293.869 880.887,294.646 880.91,295.24 881.113,296.096 881.607,297.182 881.928,297.708 882.324,298.236 882.975,298.918 883.122,298.995 883.602,299.043 884.005,299.238 883.926,299.458 884.105,299.759 884.507,299.99 885.093,300.3 885.829,300.502 886.492,300.665 887.862,300.696 888.68,300.604 889.202,300.431 889.43,300.176" fill="none" stroke="#6b7280" stroke-width="0.8"/>
<polygon points="1071.173,208.873 1071.739,208.513 1078.633,208.521 1079.044,209.138 1079.455,209.396 1081.924,209.399 1082.232,209.913 1082.592,210.171 1093.704,210.183 1093.859,210.131 1094.116,209.926 1094.117,209.412 1093.655,208.382 1093.141,207.764 1092.575,207.558 1092.216,206.837 1091.446,205.602 1090.983,204.932 1090.572,204.52 1089.801,204.108 1088.978,203.953 1087.743,204.003 1088.361,203.438 1089.134,202.615 1089.34,202.204 1089.289,201.947 1088.982,200.557 1088.88,199.117 1088.726,198.757 1088.009,195.823 1087.702,194.691 1087.446,193.354 1087.189,192.633 1086.676,192.067 1086.625,191.706 1086.008,190.677 1084.93,188.669 1084.57,188.257 1084.21,188.308 1083.954,187.691 1083.749,187.022 1082.413,185.065 1082.156,184.808 1081.642,184.55 1080.664,184.549 1079.739,184.085 1078.608,183.724 1078.402,183.672 1068.216,183.661 1066.877,184.174 1066.208,184.585 1065.282,184.584 1064.871,184.635 1064.407,184.995 1063.119,187.051 1061.624,189.776 1061.624,190.342 1061.674,190.908 1061.314,191.268 1061.005,191.628 1060.026,192.553 1059.82,192.964 1059.2,195.484 1058.993,196.513 1058.786,197.593 1058.785,198.519 1058.217,200.473 1057.856,201.811 1057.804,202.325 1058.061,202.788 1059.089,203.87 1058.522,204.126 1057.596,204.434 1057.132,204.948 1056.617,205.719 1055.792,207.056 1054.608,208.392 1054.195,209.472 1054.195,209.781 1054.452,210.09 1054.606,210.141 1068.599,210.156 1068.908,210.054 1069.423,209.385 1070.555,209.387" fill="none" stroke="#6b7280" stroke-width="0.8"/>
<polygon points="1078.136,181.879 1077.862,181.879 1077.752,181.933 1074.678,183.082 1074.568,183.082 1074.565,185.826 1077.857,186.872 1078.076,186.872 1079.394,185.721 1080.822,184.461 1080.823,184.241" fill="none" stroke="#6b7280" stroke-width="0.8"/>
<polygon points="1077.746,188.993 1077.641,188.818 1078.307,188.119 1079.111,187.875 1080.896,187.842 1081.105,187.737 1081.666,187.493 1083.729,187.495 1083.765,187.46 1089.397,187.466 1089.572,187.501 1091.006,187.503 1091.216,187.398 1091.601,186.979 1094.645,186.982 1095.065,186.213 1095.136,185.268 1095.139,183.134 1094.895,181.98 1094.615,181.595 1094.441,181.559 1091.782,181.522 1091.467,181.171 1091.118,180.821 1090.943,180.751 1082.093,180.742 1081.988,180.777 1081.882,180.916 1080.763,180.845 1080.134,180.635 1079.749,180.354 1079.085,179.969 1078.385,179.793 1078.106,179.618 1077.337,178.848 1077.232,178.812 1074.888,178.81 1073.698,179.019 1072.614,179.472 1071.913,179.926 1071.212,181.29 1070.583,181.289 1070.337,181.604 1070.301,182.898 1070.161,183.318 1070.159,185.067 1070.402,186.571 1070.891,186.852 1071.276,187.167 1071.834,188.567 1072.149,189.127 1072.463,189.512 1073.162,189.863 1074.771,190.529 1075.155,190.634 1076.8,190.636 1077.22,190.427 1077.57,190.112 1077.815,189.553" fill="none" stroke="#6b7280" stroke-width="0.8"/>
<polygon points="1078.74,200.296 1079.222,200.296 1079.518,200.408 1079.888,200.297 1080.222,200.075 1081,199.52 1081.742,198.743 1082.076,198.262 1082.67,197.225 1082.781,196.707 1082.782,196.374 1082.56,195.781 1083.116,195.152 1083.154,194.744 1083.155,193.892 1083.082,193.04 1082.934,192.596 1082.491,191.447 1081.973,190.594 1081.64,190.187 1081.085,189.63 1080.641,189.704 1080.27,189.37 1080.234,189.037 1080.012,188.777 1078.827,188.183 1077.79,187.886 1077.346,187.811 1075.753,187.81 1075.42,187.846 1074.419,188.105 1074.197,188.327 1073.974,188.734 1073.678,188.882 1073.456,188.733 1073.085,188.807 1072.492,189.103 1071.751,189.695 1071.232,190.287 1070.898,190.768 1070.527,191.323 1070.267,191.804 1069.97,192.656 1069.858,193.434 1069.969,193.656 1070.005,194.323 1069.856,194.582 1069.856,195.36 1069.892,195.952 1070.113,196.805 1070.631,197.879 1070.964,198.398 1071.371,198.917 1072.037,199.585 1072.185,199.659 1072.666,199.697 1073.073,199.882 1072.999,200.104 1073.184,200.401 1073.591,200.624 1074.183,200.92 1074.924,201.106 1075.591,201.255 1076.961,201.257 1077.776,201.147 1078.295,200.962 1078.517,200.703" fill="none" stroke="#6b7280" stroke-width="0.8"/>
<polygon points="50,449.53 50,561.738 218.576,561.738 218.576,449.53" fill="none" stroke="#6b7280" stroke-width="0.8"/>
<polygon points="129.415,508.86 139.161,508.86 139.161,502.407 129.415,502.407" fill="none" stroke="#6b7280" stroke-width="0.8"/>
<polygon points="129.415,508.86 139.161,508.86 139.161,502.407 129.415,502.407" fill="none" stroke="#6b7280" stroke-width="0.8"/>
<rect x="134.288" y="564.504" width="1" height="1" fill="none" stroke="#6b7280" stroke-width="0.8"/>
<rect x="134.288" y="581.756" width="1" height="1" fill="none" stroke="#6b7280" stroke-width="0.8"/>
<polygon points="139.409,508.459 140.23,508.024 140.989,507.589 142.253,506.76 142.822,506.345 143.012,506.068 143.328,505.653 143.518,505.337 143.518,504.547 143.138,504.093 142.569,503.777 142.316,503.638 140.673,503.145 139.282,502.809 139.029,502.414 141.179,502.394 141.495,502.335 141.621,502.019 141.431,501.9 141.115,501.782 140.42,501.722 137.386,501.683 129.737,501.683 128.219,501.722 127.587,501.762 127.145,501.841 126.955,502.216 127.334,502.354 127.84,502.414 129.61,502.414 128.472,503.026 127.84,503.164 126.386,503.599 126.007,503.757 125.375,504.113 125.059,504.508 125.059,505.377 125.185,505.634 125.817,506.266 126.133,506.542 126.576,506.878 126.955,507.155 127.777,507.728 129.041,508.518 130.242,509.15 130.622,509.288 131.064,509.387 131.759,509.486 132.708,509.585 135.805,509.585 137.196,509.407 138.081,509.15" fill="none" stroke="#6b7280" stroke-width="0.8"/>
<rect x="134.288" y="505.634" width="1" height="1" fill="none" stroke="#6b7280" stroke-width="0.8"/>
</svg>
