<svg xmlns="http://www.w3.org/2000/svg" viewBox="0 0 1600 900">
<rect width="100%" height="100%" fill="#101216"/>
<text x="24" y="26" fill="white" font-size="16">GRAD_8 | GRAD_8-c858c7821578 | REGION 01/02</text>
<text x="24" y="48" fill="#d1d5db" font-size="12">X horizontal, Y vertical | Unity world units | X=-81.4..4.952 | Y=-17.118..40.049</text>
<text x="1180" y="26" fill="#7dd3fc" font-size="11">ROAD / SPRITESHAPE</text>
<text x="1180" y="44" fill="#fbbf24" font-size="11">MARKER</text>
<text x="1180" y="62" fill="#86efac" font-size="11">RELATIVE ANCHOR</text>
<text x="1180" y="80" fill="#9ca3af" font-size="11">SPRITE BOUNDS</text>
<line x1="1189.106" y1="850" x2="1189.106" y2="50" stroke="#374151" stroke-width="1"/>
<line x1="50" y1="610.448" x2="1258.409" y2="610.448" stroke="#374151" stroke-width="1"/>
<path d="M1065.456,204.624 L1066.084,205.096 L1067.861,206.428 L1070.621,208.498 L1074.202,211.184 L1078.438,214.361 L1083.167,217.907 L1088.223,221.7 L1093.443,225.615 L1098.664,229.53 L1103.72,233.323 L1108.449,236.869 L1112.685,240.046 L1116.266,242.732 L1119.026,244.802 L1120.803,246.134 L1121.431,246.606 L1122.06,245.977 L1123.837,244.201 L1126.597,241.44 L1130.177,237.86 L1134.414,233.623 L1139.142,228.895 L1144.199,223.838 L1149.419,218.618 L1154.64,213.398 L1159.696,208.341 L1164.424,203.613 L1168.661,199.376 L1172.241,195.796 L1175.002,193.035 L1176.778,191.259 L1177.407,190.63 L1178.036,191.416 L1179.812,193.637 L1182.573,197.087 L1186.153,201.563 L1190.39,206.858 L1195.118,212.769 L1200.174,219.089 L1205.395,225.615 L1210.615,232.14 L1215.672,238.461 L1220.4,244.371 L1224.636,249.667 L1228.217,254.143 L1230.978,257.593 L1232.754,259.814 L1233.383,260.6 L1234.326,260.05 L1236.99,258.495 L1241.131,256.08 L1246.502,252.947 L1252.857,249.24 L1259.949,245.103 L1267.534,240.678 L1275.365,236.11 L1283.195,231.543 L1290.78,227.118 L1297.872,222.981 L1304.227,219.274 L1309.598,216.141 L1313.738,213.726 L1316.403,212.171 L1317.346,211.621 L1317.346,210.914 L1317.346,208.915 L1317.346,205.81 L1317.346,201.782 L1317.346,197.016 L1317.346,191.696 L1317.346,186.008 L1317.346,180.135 L1317.346,174.262 L1317.346,168.573 L1317.346,163.254 L1317.346,158.488 L1317.346,154.46 L1317.346,151.354 L1317.346,149.356 L1317.346,148.648 L1314.517,148.648 L1306.523,148.648 L1294.1,148.648 L1277.988,148.648 L1258.924,148.648 L1237.646,148.648 L1214.893,148.648 L1191.401,148.648 L1167.909,148.648 L1145.155,148.648 L1123.877,148.648 L1104.813,148.648 L1088.701,148.648 L1076.279,148.648 L1068.284,148.648 L1065.456,148.648 L1065.456,149.277 L1065.456,151.054 L1065.456,153.814 L1065.456,157.395 L1065.456,161.631 L1065.456,166.359 L1065.456,171.416 L1065.456,176.636 L1065.456,181.857 L1065.456,186.913 L1065.456,191.641 L1065.456,195.878 L1065.456,199.458 L1065.456,202.219 L1065.456,203.995 L1065.456,204.624 Z" fill="#7dd3fc" fill-opacity="0.06" stroke="#7dd3fc" stroke-width="2"/>
<text x="1069.456" y="200.624" fill="#bae6fd" font-size="11">SHP-C137895A5D5F [SSP_GRAD8_ACID]</text>
<path d="M645.638,204.624 L646.581,204.31 L649.246,203.421 L653.386,202.041 L658.757,200.251 L665.112,198.133 L672.204,195.769 L679.789,193.24 L687.62,190.63 L695.45,188.02 L703.035,185.492 L710.127,183.128 L716.482,181.009 L721.853,179.219 L725.994,177.839 L728.658,176.951 L729.601,176.636 L730.544,177.265 L733.209,179.041 L737.35,181.802 L742.721,185.382 L749.075,189.619 L756.168,194.347 L763.753,199.404 L771.583,204.624 L779.414,209.844 L786.998,214.901 L794.091,219.629 L800.446,223.866 L805.816,227.446 L809.957,230.207 L812.622,231.983 L813.565,232.612 L814.508,232.14 L817.173,230.808 L821.313,228.738 L826.684,226.052 L833.039,222.875 L840.132,219.329 L847.716,215.536 L855.547,211.621 L863.377,207.706 L870.962,203.913 L878.055,200.367 L884.409,197.19 L889.78,194.504 L893.921,192.434 L896.586,191.102 L897.528,190.63 L898.471,191.259 L901.136,193.035 L905.277,195.796 L910.648,199.376 L917.002,203.613 L924.095,208.341 L931.68,213.398 L939.51,218.618 L947.341,223.838 L954.925,228.895 L962.018,233.623 L968.373,237.86 L973.743,241.44 L977.884,244.201 L980.549,245.977 L981.492,246.606 L982.435,246.134 L985.1,244.802 L989.241,242.732 L994.611,240.046 L1000.966,236.869 L1008.059,233.323 L1015.643,229.53 L1023.474,225.615 L1031.304,221.7 L1038.889,217.907 L1045.982,214.361 L1052.336,211.184 L1057.707,208.498 L1061.848,206.428 L1064.513,205.096 L1065.456,204.624 L1065.456,203.995 L1065.456,202.219 L1065.456,199.458 L1065.456,195.878 L1065.456,191.641 L1065.456,186.913 L1065.456,181.857 L1065.456,176.636 L1065.456,171.416 L1065.456,166.359 L1065.456,161.631 L1065.456,157.395 L1065.456,153.814 L1065.456,151.054 L1065.456,149.277 L1065.456,148.648 L1060.741,148.648 L1047.417,148.648 L1026.713,148.648 L999.859,148.648 L968.086,148.648 L932.623,148.648 L894.7,148.648 L855.547,148.648 L816.394,148.648 L778.471,148.648 L743.008,148.648 L711.234,148.648 L684.381,148.648 L663.677,148.648 L650.353,148.648 L645.638,148.648 L645.638,149.277 L645.638,151.054 L645.638,153.814 L645.638,157.395 L645.638,161.631 L645.638,166.359 L645.638,171.416 L645.638,176.636 L645.638,181.857 L645.638,186.913 L645.638,191.641 L645.638,195.878 L645.638,199.458 L645.638,202.219 L645.638,203.995 L645.638,204.624 Z" fill="#7dd3fc" fill-opacity="0.06" stroke="#7dd3fc" stroke-width="2"/>
<text x="649.638" y="200.624" fill="#bae6fd" font-size="11">SHP-67DE31671D66 [SSP_GRAD4_FIRE]</text>
<path d="M1065.456,722.399 L1066.084,721.928 L1067.861,720.595 L1070.621,718.525 L1074.202,715.84 L1078.438,712.662 L1083.167,709.116 L1088.223,705.324 L1093.443,701.408 L1098.664,697.493 L1103.72,693.701 L1108.449,690.155 L1112.685,686.977 L1116.266,684.292 L1119.026,682.221 L1120.803,680.889 L1121.431,680.418 L1122.06,680.732 L1123.837,681.62 L1126.597,683 L1130.177,684.791 L1134.414,686.909 L1139.142,689.273 L1144.199,691.801 L1149.419,694.411 L1154.64,697.022 L1159.696,699.55 L1164.424,701.914 L1168.661,704.032 L1172.241,705.823 L1175.002,707.203 L1176.778,708.091 L1177.407,708.405 L1178.036,707.777 L1179.812,706 L1182.573,703.24 L1186.153,699.659 L1190.39,695.423 L1195.118,690.694 L1200.174,685.638 L1205.395,680.418 L1210.615,675.197 L1215.672,670.141 L1220.4,665.412 L1224.636,661.176 L1228.217,657.595 L1230.978,654.835 L1232.754,653.058 L1233.383,652.43 L1234.326,653.137 L1236.99,655.136 L1241.131,658.241 L1246.502,662.269 L1252.857,667.035 L1259.949,672.355 L1267.534,678.043 L1275.365,683.916 L1283.195,689.789 L1290.78,695.477 L1297.872,700.797 L1304.227,705.563 L1309.598,709.591 L1313.738,712.697 L1316.403,714.695 L1317.346,715.402 L1317.346,716.188 L1317.346,718.409 L1317.346,721.86 L1317.346,726.335 L1317.346,731.631 L1317.346,737.541 L1317.346,743.862 L1317.346,750.387 L1317.346,756.913 L1317.346,763.233 L1317.346,769.144 L1317.346,774.439 L1317.346,778.915 L1317.346,782.366 L1317.346,784.586 L1317.346,785.372 L1314.517,785.372 L1306.523,785.372 L1294.1,785.372 L1277.988,785.372 L1258.924,785.372 L1237.646,785.372 L1214.893,785.372 L1191.401,785.372 L1167.909,785.372 L1145.155,785.372 L1123.877,785.372 L1104.813,785.372 L1088.701,785.372 L1076.279,785.372 L1068.284,785.372 L1065.456,785.372 L1065.456,784.665 L1065.456,782.666 L1065.456,779.561 L1065.456,775.533 L1065.456,770.767 L1065.456,765.447 L1065.456,759.759 L1065.456,753.886 L1065.456,748.013 L1065.456,742.324 L1065.456,737.005 L1065.456,732.239 L1065.456,728.211 L1065.456,725.105 L1065.456,723.107 L1065.456,722.399 Z" fill="#7dd3fc" fill-opacity="0.06" stroke="#7dd3fc" stroke-width="2"/>
<text x="1069.456" y="718.399" fill="#bae6fd" font-size="11">grad8_floor_acid_slot_075_120 [SSP_GRAD8_ACID]</text>
<path d="M645.638,736.393 L646.581,736.079 L649.246,735.191 L653.386,733.81 L658.757,732.02 L665.112,729.902 L672.204,727.538 L679.789,725.01 L687.62,722.399 L695.45,719.789 L703.035,717.261 L710.127,714.897 L716.482,712.778 L721.853,710.988 L725.994,709.608 L728.658,708.72 L729.601,708.405 L730.544,708.877 L733.209,710.209 L737.35,712.28 L742.721,714.965 L749.075,718.142 L756.168,721.689 L763.753,725.481 L771.583,729.396 L779.414,733.312 L786.998,737.104 L794.091,740.65 L800.446,743.828 L805.816,746.513 L809.957,748.583 L812.622,749.916 L813.565,750.387 L814.508,749.759 L817.173,747.982 L821.313,745.221 L826.684,741.641 L833.039,737.405 L840.132,732.676 L847.716,727.62 L855.547,722.399 L863.377,717.179 L870.962,712.123 L878.055,707.394 L884.409,703.158 L889.78,699.577 L893.921,696.817 L896.586,695.04 L897.528,694.411 L898.471,694.883 L901.136,696.215 L905.277,698.286 L910.648,700.971 L917.002,704.148 L924.095,707.695 L931.68,711.487 L939.51,715.402 L947.341,719.318 L954.925,723.11 L962.018,726.656 L968.373,729.834 L973.743,732.519 L977.884,734.589 L980.549,735.922 L981.492,736.393 L982.435,736.236 L985.1,735.792 L989.241,735.102 L994.611,734.207 L1000.966,733.148 L1008.059,731.966 L1015.643,730.701 L1023.474,729.396 L1031.304,728.091 L1038.889,726.827 L1045.982,725.645 L1052.336,724.586 L1057.707,723.691 L1061.848,723.001 L1064.513,722.557 L1065.456,722.399 L1065.456,723.107 L1065.456,725.105 L1065.456,728.211 L1065.456,732.239 L1065.456,737.005 L1065.456,742.324 L1065.456,748.013 L1065.456,753.886 L1065.456,759.759 L1065.456,765.447 L1065.456,770.767 L1065.456,775.533 L1065.456,779.561 L1065.456,782.666 L1065.456,784.665 L1065.456,785.372 L1060.741,785.372 L1047.417,785.372 L1026.713,785.372 L999.859,785.372 L968.086,785.372 L932.623,785.372 L894.7,785.372 L855.547,785.372 L816.394,785.372 L778.471,785.372 L743.008,785.372 L711.234,785.372 L684.381,785.372 L663.677,785.372 L650.353,785.372 L645.638,785.372 L645.638,784.822 L645.638,783.267 L645.638,780.852 L645.638,777.719 L645.638,774.012 L645.638,769.875 L645.638,765.45 L645.638,760.883 L645.638,756.315 L645.638,751.89 L645.638,747.753 L645.638,744.046 L645.638,740.913 L645.638,738.498 L645.638,736.943 L645.638,736.393 Z" fill="#7dd3fc" fill-opacity="0.06" stroke="#7dd3fc" stroke-width="2"/>
<text x="649.638" y="732.393" fill="#bae6fd" font-size="11">grad8_floor_fire_000_075 [SSP_GRAD4_FIRE]</text>
<path d="M1104.639,274.594 L1105.017,274.079 L1106.11,272.63 L1107.854,270.385 L1110.184,267.486 L1113.037,264.071 L1116.349,260.282 L1120.055,256.259 L1124.092,252.141 L1128.396,248.069 L1132.902,244.182 L1137.547,240.621 L1142.267,237.527 L1146.997,235.039 L1151.675,233.297 L1156.235,232.441 L1160.614,232.612 L1164.866,233.854 L1169.079,236.058 L1173.239,239.133 L1177.333,242.985 L1181.349,247.525 L1185.273,252.659 L1189.092,258.297 L1192.793,264.347 L1196.364,270.718 L1199.79,277.316 L1203.059,284.052 L1206.158,290.833 L1209.073,297.567 L1211.793,304.163 L1214.303,310.53 L1216.59,316.575 L1218.831,323.363 L1221.178,331.859 L1223.586,341.83 L1226.006,353.039 L1228.393,365.252 L1230.699,378.232 L1232.876,391.746 L1234.88,405.556 L1236.661,419.428 L1238.174,433.127 L1239.371,446.417 L1240.205,459.063 L1240.631,470.829 L1240.599,481.48 L1240.065,490.781 L1238.98,498.497 L1237.466,505.587 L1235.678,513.091 L1233.616,520.894 L1231.285,528.878 L1228.684,536.928 L1225.818,544.926 L1222.688,552.756 L1219.296,560.302 L1215.645,567.446 L1211.736,574.074 L1207.573,580.068 L1203.156,585.312 L1198.489,589.689 L1193.573,593.082 L1188.411,595.376 L1183.005,596.454 L1177.518,596.047 L1172.135,594.107 L1166.892,590.85 L1161.821,586.491 L1156.959,581.244 L1152.338,575.325 L1147.995,568.949 L1143.962,562.331 L1140.274,555.686 L1136.967,549.229 L1134.074,543.176 L1131.629,537.74 L1129.668,533.138 L1128.225,529.585 L1127.333,527.295 L1127.029,526.484" fill="none" fill-opacity="0" stroke="#7dd3fc" stroke-width="2"/>
<text x="1108.639" y="270.594" fill="#bae6fd" font-size="11">SHP-5B12C8E645BB [SSP_DEMO_OpenEdge]</text>
<path d="M880.736,330.569 L880.979,329.941 L881.69,328.164 L882.841,325.404 L884.406,321.823 L886.357,317.587 L888.667,312.858 L891.309,307.802 L894.255,302.582 L897.479,297.361 L900.952,292.305 L904.648,287.576 L908.54,283.34 L912.599,279.759 L916.8,276.999 L921.115,275.222 L925.516,274.594 L929.932,275.074 L934.297,276.461 L938.596,278.671 L942.814,281.621 L946.935,285.229 L950.944,289.41 L954.826,294.083 L958.566,299.165 L962.147,304.572 L965.554,310.221 L968.773,316.03 L971.787,321.915 L974.581,327.794 L977.14,333.584 L979.449,339.201 L981.492,344.563 L983.323,351.241 L985.002,360.599 L986.517,372.249 L987.861,385.798 L989.023,400.857 L989.993,417.035 L990.763,433.942 L991.323,451.187 L991.663,468.38 L991.773,485.13 L991.645,501.048 L991.269,515.742 L990.635,528.821 L989.733,539.897 L988.554,548.577 L987.09,554.472 L985.38,558.966 L983.474,563.656 L981.372,568.471 L979.076,573.341 L976.586,578.196 L973.904,582.966 L971.03,587.579 L967.966,591.966 L964.713,596.055 L961.27,599.777 L957.64,603.061 L953.824,605.837 L949.822,608.034 L945.635,609.582 L941.265,610.41 L936.711,610.448 L932.127,609.328 L927.676,606.859 L923.381,603.237 L919.265,598.659 L915.35,593.32 L911.658,587.417 L908.212,581.146 L905.033,574.702 L902.145,568.282 L899.569,562.082 L897.328,556.298 L895.445,551.126 L893.941,546.762 L892.839,543.402 L892.162,541.242 L891.931,540.478" fill="none" fill-opacity="0" stroke="#7dd3fc" stroke-width="2"/>
<text x="884.736" y="326.569" fill="#bae6fd" font-size="11">SHP-7DA85C714ADC [SSP_DEMO_OpenEdge]</text>
<path d="M916.258,470.509 L916.373,469.419 L916.697,466.341 L917.202,461.557 L917.856,455.352 L918.63,448.011 L919.494,439.817 L920.418,431.055 L921.371,422.009 L922.325,412.962 L923.249,404.2 L924.113,396.006 L924.887,388.665 L925.541,382.46 L926.045,377.676 L926.37,374.598 L926.485,373.508 L926.714,373.508 L927.364,373.508 L928.372,373.508 L929.681,373.508 L931.229,373.508 L932.956,373.508 L934.804,373.508 L936.712,373.508 L938.619,373.508 L940.467,373.508 L942.194,373.508 L943.742,373.508 L945.051,373.508 L946.059,373.508 L946.708,373.508 L946.938,373.508 L947.053,374.598 L947.378,377.676 L947.882,382.46 L948.536,388.665 L949.31,396.006 L950.174,404.2 L951.098,412.962 L952.052,422.009 L953.005,431.055 L953.929,439.817 L954.793,448.011 L955.567,455.352 L956.221,461.557 L956.726,466.341 L957.05,469.419 L957.165,470.509 L957.05,471.598 L956.726,474.677 L956.221,479.46 L955.567,485.665 L954.793,493.006 L953.929,501.2 L953.005,509.962 L952.052,519.009 L951.098,528.055 L950.174,536.817 L949.31,545.011 L948.536,552.353 L947.882,558.557 L947.378,563.341 L947.053,566.42 L946.938,567.509 L946.709,567.509 L946.059,567.509 L945.051,567.509 L943.742,567.509 L942.194,567.509 L940.467,567.509 L938.619,567.509 L936.712,567.509 L934.804,567.509 L932.956,567.509 L931.229,567.509 L929.681,567.509 L928.372,567.509 L927.364,567.509 L926.714,567.509 L926.485,567.509 L926.37,566.42 L926.045,563.341 L925.541,558.557 L924.887,552.353 L924.113,545.011 L923.249,536.817 L922.325,528.055 L921.371,519.009 L920.418,509.962 L919.494,501.2 L918.63,493.006 L917.856,485.665 L917.202,479.46 L916.697,474.677 L916.373,471.598 L916.258,470.509 Z" fill="#7dd3fc" fill-opacity="0.06" stroke="#7dd3fc" stroke-width="2"/>
<text x="920.258" y="466.509" fill="#bae6fd" font-size="11">grad8_star_01 [SSP_GRAD4_FIRE]</text>
<path d="M1121.069,358.557 L1121.166,357.573 L1121.438,354.79 L1121.861,350.466 L1122.41,344.858 L1123.059,338.223 L1123.783,330.817 L1124.558,322.897 L1125.358,314.721 L1126.158,306.544 L1126.933,298.624 L1127.657,291.218 L1128.307,284.583 L1128.855,278.975 L1129.278,274.651 L1129.55,271.868 L1129.647,270.884 L1129.839,270.884 L1130.384,270.884 L1131.23,270.884 L1132.327,270.884 L1133.625,270.884 L1135.075,270.884 L1136.624,270.884 L1138.224,270.884 L1139.824,270.884 L1141.373,270.884 L1142.823,270.884 L1144.121,270.884 L1145.218,270.884 L1146.064,270.884 L1146.609,270.884 L1146.801,270.884 L1146.898,271.868 L1147.17,274.651 L1147.593,278.975 L1148.141,284.583 L1148.791,291.218 L1149.515,298.624 L1150.29,306.544 L1151.09,314.721 L1151.89,322.897 L1152.665,330.817 L1153.389,338.223 L1154.038,344.858 L1154.587,350.466 L1155.01,354.79 L1155.282,357.573 L1155.379,358.557 L1155.282,359.542 L1155.01,362.324 L1154.587,366.648 L1154.038,372.256 L1153.389,378.892 L1152.665,386.298 L1151.89,394.217 L1151.09,402.394 L1150.29,410.57 L1149.515,418.49 L1148.791,425.896 L1148.141,432.532 L1147.593,438.14 L1147.17,442.463 L1146.898,445.246 L1146.801,446.231 L1146.609,446.231 L1146.064,446.231 L1145.218,446.231 L1144.121,446.231 L1142.823,446.231 L1141.374,446.231 L1139.824,446.231 L1138.224,446.231 L1136.624,446.231 L1135.075,446.231 L1133.625,446.231 L1132.327,446.231 L1131.23,446.231 L1130.384,446.231 L1129.839,446.231 L1129.647,446.231 L1129.55,445.246 L1129.278,442.463 L1128.855,438.14 L1128.307,432.532 L1127.657,425.896 L1126.933,418.49 L1126.158,410.57 L1125.358,402.394 L1124.558,394.217 L1123.783,386.298 L1123.059,378.892 L1122.41,372.256 L1121.861,366.648 L1121.438,362.324 L1121.166,359.542 L1121.069,358.557 Z" fill="#7dd3fc" fill-opacity="0.06" stroke="#7dd3fc" stroke-width="2"/>
<text x="1125.069" y="354.557" fill="#bae6fd" font-size="11">grad8_star_02 [SSP_GRAD4_FIRE]</text>
<path d="M1256.731,554.472 L1256.82,553.571 L1257.071,551.026 L1257.461,547.07 L1257.968,541.939 L1258.567,535.868 L1259.236,529.093 L1259.951,521.847 L1260.689,514.366 L1261.428,506.886 L1262.143,499.64 L1262.812,492.864 L1263.411,486.794 L1263.918,481.663 L1264.308,477.707 L1264.559,475.161 L1264.648,474.26 L1264.826,474.26 L1265.329,474.26 L1266.11,474.26 L1267.122,474.26 L1268.321,474.26 L1269.659,474.26 L1271.089,474.26 L1272.566,474.26 L1274.042,474.26 L1275.473,474.26 L1276.811,474.26 L1278.009,474.26 L1279.022,474.26 L1279.803,474.26 L1280.305,474.26 L1280.483,474.26 L1280.572,475.161 L1280.823,477.707 L1281.214,481.663 L1281.72,486.794 L1282.319,492.864 L1282.988,499.64 L1283.703,506.886 L1284.442,514.366 L1285.18,521.847 L1285.896,529.093 L1286.564,535.868 L1287.164,541.939 L1287.67,547.07 L1288.06,551.026 L1288.312,553.571 L1288.401,554.472 L1288.312,555.373 L1288.06,557.919 L1287.67,561.875 L1287.164,567.005 L1286.564,573.076 L1285.896,579.852 L1285.18,587.097 L1284.442,594.578 L1283.703,602.059 L1282.988,609.304 L1282.319,616.08 L1281.72,622.151 L1281.214,627.282 L1280.823,631.237 L1280.572,633.783 L1280.483,634.684 L1280.305,634.684 L1279.803,634.684 L1279.022,634.684 L1278.009,634.684 L1276.811,634.684 L1275.473,634.684 L1274.042,634.684 L1272.566,634.684 L1271.089,634.684 L1269.659,634.684 L1268.321,634.684 L1267.122,634.684 L1266.11,634.684 L1265.329,634.684 L1264.826,634.684 L1264.648,634.684 L1264.559,633.783 L1264.308,631.237 L1263.918,627.282 L1263.411,622.151 L1262.812,616.08 L1262.143,609.304 L1261.428,602.059 L1260.689,594.578 L1259.951,587.097 L1259.236,579.852 L1258.567,573.076 L1257.968,567.005 L1257.461,561.875 L1257.071,557.919 L1256.82,555.373 L1256.731,554.472 Z" fill="#7dd3fc" fill-opacity="0.06" stroke="#7dd3fc" stroke-width="2"/>
<text x="1260.731" y="550.472" fill="#bae6fd" font-size="11">grad8_star_03 [SSP_GRAD4_FIRE]</text>
<polygon points="145.002,613.45 145.875,612.988 146.681,612.526 148.025,611.644 148.629,611.204 148.831,610.91 149.167,610.469 149.368,610.133 149.368,609.293 148.965,608.811 148.361,608.475 148.092,608.328 146.345,607.803 144.868,607.446 144.599,607.026 146.883,607.005 147.219,606.942 147.353,606.607 147.151,606.481 146.816,606.355 146.077,606.292 142.853,606.25 134.725,606.25 133.113,606.292 132.441,606.334 131.971,606.418 131.769,606.817 132.172,606.963 132.71,607.026 134.591,607.026 133.382,607.677 132.71,607.824 131.165,608.286 130.762,608.454 130.09,608.832 129.754,609.251 129.754,610.175 129.889,610.448 130.56,611.12 130.896,611.414 131.366,611.77 131.769,612.064 132.643,612.673 133.986,613.513 135.262,614.184 135.665,614.331 136.136,614.436 136.874,614.541 137.882,614.646 141.173,614.646 142.651,614.457 143.591,614.184" fill="none" stroke="#6b7280" stroke-width="0.8"/>
<rect x="139.561" y="610.448" width="1" height="1" fill="none" stroke="#6b7280" stroke-width="0.8"/>
<polygon points="934.154,368.479 934.756,368.097 942.08,368.097 942.518,368.753 942.955,369.026 945.579,369.026 945.907,369.573 946.29,369.846 958.097,369.846 958.261,369.791 958.534,369.573 958.534,369.026 958.042,367.933 957.496,367.277 956.894,367.058 956.512,366.293 955.692,364.981 955.2,364.27 954.763,363.833 953.943,363.396 953.068,363.232 951.756,363.286 952.412,362.685 953.232,361.81 953.451,361.373 953.396,361.1 953.068,359.624 952.959,358.093 952.795,357.71 952.029,354.595 951.701,353.392 951.428,351.971 951.155,351.206 950.608,350.604 950.553,350.222 949.897,349.128 948.75,346.996 948.367,346.559 947.984,346.614 947.711,345.958 947.492,345.247 946.071,343.17 945.798,342.897 945.251,342.623 944.212,342.623 943.228,342.131 942.026,341.749 941.807,341.694 930.984,341.694 929.562,342.241 928.852,342.678 927.868,342.678 927.431,342.733 926.939,343.115 925.572,345.302 923.987,348.199 923.987,348.8 924.041,349.402 923.659,349.784 923.331,350.167 922.292,351.151 922.074,351.588 921.418,354.267 921.199,355.36 920.98,356.508 920.98,357.492 920.379,359.569 919.996,360.99 919.942,361.537 920.215,362.029 921.308,363.177 920.707,363.45 919.723,363.778 919.231,364.325 918.684,365.145 917.81,366.566 916.552,367.987 916.115,369.135 916.115,369.463 916.389,369.791 916.552,369.846 931.421,369.846 931.749,369.737 932.296,369.026 933.498,369.026" fill="none" stroke="#6b7280" stroke-width="0.8"/>
<polygon points="941.523,339.789 941.231,339.789 941.115,339.847 937.849,341.072 937.733,341.072 937.733,343.987 941.231,345.095 941.465,345.095 942.864,343.87 944.38,342.529 944.38,342.296" fill="none" stroke="#6b7280" stroke-width="0.8"/>
<polygon points="941.116,347.348 941.005,347.163 941.711,346.419 942.566,346.159 944.462,346.122 944.685,346.01 945.279,345.75 947.473,345.75 947.51,345.713 953.494,345.713 953.68,345.75 955.204,345.75 955.427,345.639 955.836,345.192 959.07,345.192 959.516,344.375 959.59,343.371 959.59,341.104 959.33,339.877 959.033,339.468 958.847,339.431 956.022,339.394 955.687,339.022 955.316,338.65 955.13,338.576 945.725,338.576 945.614,338.613 945.502,338.762 944.313,338.688 943.644,338.464 943.235,338.167 942.529,337.758 941.785,337.572 941.488,337.387 940.67,336.569 940.559,336.532 938.068,336.532 936.804,336.755 935.652,337.238 934.909,337.721 934.165,339.171 933.496,339.171 933.236,339.505 933.199,340.881 933.05,341.327 933.05,343.185 933.31,344.784 933.831,345.081 934.239,345.416 934.834,346.902 935.169,347.497 935.503,347.906 936.247,348.278 937.957,348.984 938.366,349.095 940.113,349.095 940.559,348.872 940.93,348.538 941.191,347.943" fill="none" stroke="#6b7280" stroke-width="0.8"/>
<polygon points="942.185,359.357 942.697,359.357 943.012,359.475 943.406,359.357 943.76,359.121 944.586,358.53 945.373,357.704 945.728,357.192 946.357,356.09 946.475,355.539 946.475,355.185 946.239,354.555 946.83,353.886 946.869,353.453 946.869,352.548 946.79,351.643 946.633,351.171 946.161,349.95 945.61,349.045 945.255,348.612 944.665,348.022 944.193,348.101 943.799,347.746 943.76,347.392 943.524,347.117 942.264,346.487 941.162,346.172 940.69,346.093 938.997,346.093 938.643,346.133 937.581,346.408 937.344,346.644 937.108,347.077 936.793,347.235 936.557,347.077 936.164,347.156 935.534,347.471 934.747,348.101 934.196,348.73 933.842,349.242 933.448,349.832 933.172,350.344 932.858,351.249 932.74,352.076 932.858,352.312 932.897,353.02 932.74,353.296 932.74,354.122 932.779,354.752 933.015,355.657 933.566,356.799 933.92,357.35 934.353,357.901 935.062,358.609 935.219,358.688 935.731,358.727 936.164,358.924 936.085,359.16 936.282,359.475 936.715,359.711 937.344,360.026 938.132,360.223 938.84,360.38 940.296,360.38 941.162,360.262 941.713,360.065 941.949,359.79" fill="none" stroke="#6b7280" stroke-width="0.8"/>
<polygon points="1135.051,265.856 1135.652,265.473 1142.977,265.47 1143.415,266.125 1143.852,266.398 1146.476,266.397 1146.804,266.944 1147.187,267.217 1158.994,267.211 1159.158,267.156 1159.432,266.937 1159.431,266.39 1158.939,265.297 1158.392,264.642 1157.79,264.423 1157.407,263.658 1156.587,262.347 1156.094,261.636 1155.657,261.199 1154.837,260.762 1153.962,260.599 1152.65,260.654 1153.306,260.053 1154.125,259.178 1154.344,258.74 1154.289,258.467 1153.96,256.991 1153.85,255.461 1153.686,255.078 1152.919,251.963 1152.59,250.76 1152.316,249.339 1152.042,248.574 1151.495,247.973 1151.44,247.59 1150.784,246.497 1149.635,244.366 1149.252,243.929 1148.869,243.984 1148.596,243.328 1148.377,242.617 1146.954,240.541 1146.681,240.268 1146.134,239.995 1145.095,239.995 1144.111,239.504 1142.908,239.122 1142.69,239.067 1131.866,239.073 1130.445,239.62 1129.735,240.058 1128.751,240.058 1128.314,240.113 1127.822,240.496 1126.457,242.683 1124.873,245.581 1124.873,246.183 1124.928,246.784 1124.546,247.167 1124.218,247.55 1123.18,248.534 1122.961,248.972 1122.307,251.651 1122.089,252.744 1121.871,253.892 1121.871,254.876 1121.271,256.953 1120.889,258.375 1120.835,258.922 1121.108,259.413 1122.202,260.561 1121.601,260.834 1120.617,261.163 1120.125,261.71 1119.579,262.53 1118.705,263.952 1117.449,265.374 1117.012,266.522 1117.012,266.85 1117.286,267.178 1117.45,267.232 1132.318,267.224 1132.646,267.115 1133.193,266.404 1134.395,266.403" fill="none" stroke="#6b7280" stroke-width="0.8"/>
<polygon points="1142.405,237.162 1142.113,237.162 1141.996,237.221 1138.732,238.447 1138.615,238.447 1138.617,241.362 1142.116,242.468 1142.349,242.468 1143.748,241.243 1145.263,239.901 1145.263,239.668" fill="none" stroke="#6b7280" stroke-width="0.8"/>
<polygon points="1142.002,244.722 1141.89,244.536 1142.596,243.792 1143.451,243.532 1145.347,243.494 1145.57,243.382 1146.164,243.121 1148.357,243.12 1148.394,243.083 1154.379,243.08 1154.565,243.117 1156.089,243.116 1156.312,243.005 1156.721,242.558 1159.954,242.557 1160.4,241.739 1160.474,240.735 1160.473,238.468 1160.212,237.241 1159.914,236.832 1159.728,236.795 1156.903,236.76 1156.569,236.388 1156.197,236.016 1156.011,235.942 1146.607,235.947 1146.495,235.984 1146.384,236.133 1145.194,236.059 1144.525,235.837 1144.116,235.54 1143.409,235.131 1142.666,234.946 1142.368,234.76 1141.55,233.943 1141.439,233.905 1138.948,233.907 1137.684,234.13 1136.532,234.614 1135.789,235.098 1135.047,236.548 1134.377,236.548 1134.117,236.883 1134.081,238.258 1133.932,238.704 1133.933,240.563 1134.195,242.161 1134.715,242.458 1135.124,242.793 1135.72,244.279 1136.054,244.874 1136.389,245.282 1137.133,245.654 1138.843,246.359 1139.252,246.47 1140.999,246.47 1141.445,246.246 1141.817,245.912 1142.076,245.317" fill="none" stroke="#6b7280" stroke-width="0.8"/>
<polygon points="1143.077,256.73 1143.589,256.73 1143.904,256.848 1144.297,256.729 1144.651,256.493 1145.478,255.902 1146.264,255.075 1146.618,254.563 1147.248,253.461 1147.365,252.91 1147.365,252.556 1147.129,251.926 1147.719,251.257 1147.758,250.824 1147.757,249.919 1147.678,249.013 1147.52,248.541 1147.048,247.321 1146.496,246.416 1146.142,245.984 1145.551,245.394 1145.079,245.473 1144.685,245.119 1144.645,244.764 1144.409,244.489 1143.149,243.86 1142.047,243.546 1141.575,243.467 1139.882,243.468 1139.528,243.508 1138.466,243.784 1138.23,244.02 1137.994,244.453 1137.679,244.611 1137.443,244.453 1137.049,244.532 1136.42,244.847 1135.633,245.477 1135.082,246.108 1134.728,246.619 1134.335,247.21 1134.06,247.722 1133.745,248.627 1133.628,249.454 1133.746,249.69 1133.786,250.398 1133.628,250.674 1133.629,251.5 1133.668,252.13 1133.905,253.035 1134.457,254.176 1134.811,254.727 1135.244,255.278 1135.953,255.986 1136.111,256.065 1136.622,256.104 1137.055,256.3 1136.977,256.536 1137.174,256.851 1137.607,257.087 1138.237,257.402 1139.024,257.598 1139.732,257.755 1141.189,257.754 1142.054,257.636 1142.605,257.439 1142.841,257.163" fill="none" stroke="#6b7280" stroke-width="0.8"/>
<polygon points="1268.92,468.532 1269.522,468.149 1276.847,468.149 1277.284,468.805 1277.721,469.078 1280.345,469.078 1280.673,469.625 1281.056,469.898 1292.863,469.898 1293.027,469.844 1293.3,469.625 1293.3,469.078 1292.808,467.985 1292.262,467.329 1291.661,467.11 1291.278,466.345 1290.458,465.033 1289.966,464.323 1289.529,463.885 1288.709,463.448 1287.834,463.284 1286.522,463.339 1287.178,462.737 1287.998,461.863 1288.217,461.425 1288.162,461.152 1287.834,459.676 1287.725,458.146 1287.561,457.763 1286.796,454.647 1286.468,453.445 1286.194,452.023 1285.921,451.258 1285.374,450.657 1285.32,450.274 1284.664,449.181 1283.516,447.049 1283.133,446.612 1282.75,446.666 1282.477,446.01 1282.258,445.3 1280.837,443.222 1280.564,442.949 1280.017,442.676 1278.979,442.676 1277.995,442.184 1276.792,441.801 1276.573,441.746 1265.75,441.746 1264.329,442.293 1263.618,442.73 1262.634,442.73 1262.197,442.785 1261.705,443.168 1260.338,445.354 1258.753,448.251 1258.753,448.853 1258.808,449.454 1258.425,449.837 1258.097,450.219 1257.058,451.203 1256.84,451.64 1256.184,454.319 1255.965,455.412 1255.746,456.56 1255.746,457.544 1255.145,459.621 1254.762,461.043 1254.708,461.589 1254.981,462.081 1256.074,463.229 1255.473,463.503 1254.489,463.83 1253.997,464.377 1253.45,465.197 1252.576,466.618 1251.319,468.04 1250.881,469.188 1250.881,469.516 1251.155,469.843 1251.319,469.898 1266.187,469.898 1266.515,469.789 1267.062,469.078 1268.264,469.078" fill="none" stroke="#6b7280" stroke-width="0.8"/>
<polygon points="1016.283,273.007 1016.084,272.322 1018.13,265.289 1018.882,265.052 1019.266,264.709 1019.999,262.189 1020.616,262.027 1020.985,261.736 1024.283,250.398 1024.276,250.226 1024.142,249.902 1023.618,249.749 1022.43,249.916 1021.648,250.258 1021.27,250.774 1020.428,250.928 1018.94,251.349 1018.12,251.623 1017.578,251.921 1016.929,252.586 1016.527,253.38 1016.213,254.655 1015.819,253.857 1015.208,252.825 1014.849,252.493 1014.572,252.47 1013.063,252.372 1011.563,252.05 1011.149,252.1 1007.944,251.965 1006.697,251.944 1005.256,251.809 1004.445,251.858 1003.715,252.215 1003.332,252.161 1002.099,252.485 999.732,252.992 999.205,253.237 999.151,253.62 998.445,253.699 997.701,253.711 995.31,254.495 994.971,254.681 994.556,255.13 994.266,256.127 993.518,256.935 992.815,257.983 992.702,258.177 989.679,268.57 989.807,270.087 990.028,270.892 989.753,271.837 989.684,272.272 989.914,272.851 991.631,274.774 993.971,277.105 994.548,277.273 995.141,277.389 995.401,277.863 995.677,278.285 996.332,279.557 996.691,279.889 999.079,281.267 1000.068,281.782 1001.109,282.313 1002.054,282.588 1003.88,283.745 1005.138,284.509 1005.648,284.715 1006.197,284.59 1007.604,283.86 1007.699,284.514 1007.739,285.551 1008.126,286.176 1008.761,286.929 1009.881,288.166 1010.895,289.77 1011.875,290.511 1012.19,290.603 1012.581,290.432 1012.68,290.29 1016.832,276.013 1016.819,275.667 1016.289,274.944 1016.625,273.789" fill="none" stroke="#6b7280" stroke-width="0.8"/>
<polygon points="990.793,257.918 990.711,258.198 990.735,258.326 990.999,261.804 990.966,261.915 993.765,262.73 995.806,259.68 995.871,259.456 995.086,257.77 994.222,255.94 993.998,255.875" fill="none" stroke="#6b7280" stroke-width="0.8"/>
<polygon points="997.938,260.42 997.728,260.475 997.212,259.589 997.201,258.696 997.695,256.865 997.65,256.62 997.566,255.976 998.179,253.87 998.153,253.824 999.825,248.078 999.912,247.91 1000.338,246.446 1000.293,246.201 999.979,245.684 1000.882,242.578 1000.222,241.922 999.279,241.57 997.101,240.937 995.851,240.844 995.375,241.015 995.288,241.183 994.463,243.886 994.013,244.103 993.552,244.356 993.429,244.514 990.802,253.544 990.807,253.661 990.918,253.81 990.515,254.931 990.114,255.512 989.714,255.821 989.124,256.385 988.738,257.047 988.476,257.281 987.463,257.837 987.396,257.934 986.7,260.326 986.562,261.601 986.704,262.843 986.96,263.692 988.144,264.81 987.958,265.453 988.206,265.796 989.516,266.216 989.903,266.483 991.688,267.002 993.295,267.199 993.726,266.782 994.161,266.483 995.755,266.327 996.42,266.172 996.906,265.965 997.47,265.355 998.626,263.911 998.847,263.549 999.335,261.872 999.246,261.381 999.028,260.931 998.53,260.515" fill="none" stroke="#6b7280" stroke-width="0.8"/>
<polygon points="1009.767,262.747 1009.91,262.256 1010.112,261.987 1010.108,261.576 1009.98,261.17 1009.644,260.211 1009.07,259.224 1008.678,258.741 1007.796,257.829 1007.3,257.562 1006.96,257.463 1006.289,257.514 1005.811,256.76 1005.407,256.601 1004.537,256.348 1003.646,256.171 1003.149,256.19 1001.845,256.303 1000.822,256.579 1000.308,256.798 999.576,257.2 999.52,257.676 999.069,257.955 998.718,257.894 998.388,258.044 997.431,259.077 996.821,260.047 996.614,260.479 996.141,262.104 996.08,262.455 996.048,263.552 996.209,263.845 996.558,264.193 996.622,264.539 996.404,264.722 996.37,265.122 996.496,265.814 996.881,266.746 997.332,267.451 997.724,267.934 998.181,268.477 998.596,268.884 999.377,269.439 1000.138,269.784 1000.397,269.736 1001.089,269.896 1001.309,270.124 1002.103,270.355 1002.718,270.493 1003.654,270.519 1004.903,270.309 1005.531,270.123 1006.181,269.861 1007.06,269.379 1007.179,269.249 1007.36,268.769 1007.67,268.408 1007.874,268.55 1008.232,268.449 1008.579,268.099 1009.058,267.582 1009.466,266.882 1009.815,266.245 1010.222,264.847 1010.351,263.983 1010.316,263.399 1010.117,263.095" fill="none" stroke="#6b7280" stroke-width="0.8"/>
<polygon points="50,550.834 50,670.062 229.122,670.062 229.122,550.834" fill="none" stroke="#6b7280" stroke-width="0.8"/>
<polygon points="134.383,613.876 144.739,613.876 144.739,607.019 134.383,607.019" fill="none" stroke="#6b7280" stroke-width="0.8"/>
<polygon points="134.383,613.876 144.739,613.876 144.739,607.019 134.383,607.019" fill="none" stroke="#6b7280" stroke-width="0.8"/>
<rect x="139.561" y="673.001" width="1" height="1" fill="none" stroke="#6b7280" stroke-width="0.8"/>
<rect x="139.561" y="691.333" width="1" height="1" fill="none" stroke="#6b7280" stroke-width="0.8"/>
<polygon points="145.002,613.45 145.875,612.988 146.681,612.526 148.025,611.644 148.629,611.204 148.831,610.91 149.167,610.469 149.368,610.133 149.368,609.293 148.965,608.811 148.361,608.475 148.092,608.328 146.345,607.803 144.868,607.446 144.599,607.026 146.883,607.005 147.219,606.942 147.353,606.607 147.151,606.481 146.816,606.355 146.077,606.292 142.853,606.25 134.725,606.25 133.113,606.292 132.441,606.334 131.971,606.418 131.769,606.817 132.172,606.963 132.71,607.026 134.591,607.026 133.382,607.677 132.71,607.824 131.165,608.286 130.762,608.454 130.09,608.832 129.754,609.251 129.754,610.175 129.889,610.448 130.56,611.12 130.896,611.414 131.366,611.77 131.769,612.064 132.643,612.673 133.986,613.513 135.262,614.184 135.665,614.331 136.136,614.436 136.874,614.541 137.882,614.646 141.173,614.646 142.651,614.457 143.591,614.184" fill="none" stroke="#6b7280" stroke-width="0.8"/>
<rect x="139.561" y="610.448" width="1" height="1" fill="none" stroke="#6b7280" stroke-width="0.8"/>
<circle cx="921.783" cy="392.303" r="3" fill="#86efac"/><text x="926.783" y="404.303" fill="#bbf7d0" font-size="9">REL_REQUEST_G8-SCORPION-01</text>
<circle cx="843.779" cy="730.244" r="3" fill="#86efac"/><text x="848.779" y="742.244" fill="#bbf7d0" font-size="9">REL_REQUEST_G8-SCORPION-02</text>
<circle cx="1151.75" cy="296.184" r="3" fill="#86efac"/><text x="1156.75" y="308.184" fill="#bbf7d0" font-size="9">REL_REQUEST_G8-SCORPION-03</text>
<circle cx="936.711" cy="349.767" r="3" fill="#86efac"/><text x="941.711" y="361.767" fill="#bbf7d0" font-size="9">REL_REQUEST_G8SHIP-102</text>
<circle cx="1138.224" cy="356.129" r="3" fill="#86efac"/><text x="1143.224" y="368.129" fill="#bbf7d0" font-size="9">REL_REQUEST_G8SHIP-202</text>
</svg>
